# File created by Blade
# Date/Time:  Wed Apr 08 17:31:45 2015
#---------------------------------------------------------
:version 1.10
:name HOM
:units
  mass 1.0
  length 1.000000
  angle deg
:documentation
     Acclaim Skeleton File
:root
   axis xyz
   order TX TY TZ RX RY RZ
   position 0.000000 0.000000 0.000000
   orientation 0 0 0
:bonedata
   begin
      id 1
      name Spine_dum
      direction 0.000000 1.000000 0.000000
      length 5.893853
      axis 0.0 0.0 0.0 xyz
   end
   begin
      id 2
      name LeftUpLeg_dum
      direction 1.000000 0.000000 0.000000
      length 3.697939
      axis 0.0 0.0 0.0 xyz
   end
   begin
      id 3
      name RightUpLeg_dum
      direction -1.000000 0.000000 0.000000
      length 3.697939
      axis 0.0 0.0 0.0 xyz
   end
   begin
      id 4
      name Spine
      direction 0.000000 1.000000 0.000000
      length 0.000000
      axis 0.0 0.0 0.0 xyz
      dof rx ry rz
   end
   begin
      id 5
      name Spine_dum1
      direction 0.000000 1.000000 0.000000
      length 16.447146
      axis 0.0 0.0 0.0 xyz
   end
   begin
      id 6
      name Spine_dum2
      direction 0.000000 1.000000 0.000000
      length 10.900383
      axis 0.0 0.0 0.0 xyz
   end
   begin
      id 7
      name Spine_dum3
      direction 0.000000 1.000000 0.000000
      length 10.900383
      axis 0.0 0.0 0.0 xyz
   end
   begin
      id 8
      name Head
      direction 0.000000 1.000000 0.000000
      length 4.527550
      axis 0.0 0.0 0.0 xyz
      dof rx ry rz
   end
   begin
      id 9
      name LeftShoulder
      direction 1.000000 0.000000 0.000000
      length 8.219464
      axis 0.0 0.0 -90.0 xyz
      dof rx ry rz
   end
   begin
      id 10
      name LeftArm
      direction 1.000000 0.000000 0.000000
      length 11.094937
      axis 0.0 0.0 -90.0 xyz
      dof rx ry rz
   end
   begin
      id 11
      name LeftForeArm
      direction 1.000000 0.000000 0.000000
      length 9.103875
      axis 0.0 0.0 -90.0 xyz
      dof ry rz rx
   end
   begin
      id 12
      name LeftHand
      direction 0.000000 0.000000 0.000000
      length 0.000000
      axis 0.0 0.0 -90.0 xyz
      dof rx ry rz
   end
   begin
      id 13
      name LeftHand_dum1
      direction 0.000000 0.000000 0.000000
      length 0.000000
      axis 0.0 0.0 -90.0 xyz
   end
   begin
      id 14
      name LeftHand_dum2
      direction 1.000000 0.000000 0.000000
      length 3.937000
      axis 0.0 0.0 -90.0 xyz
   end
   begin
      id 15
      name LeftHandThumb1
      direction 0.000000 0.000000 1.000000
      length 3.937000
      axis 0.0 0.0 -90.0 xyz
      dof rx rz ry
   end
   begin
      id 16
      name RightShoulder
      direction -1.000000 0.000000 0.000000
      length 8.219464
      axis 0.0 0.0 90.0 xyz
      dof rx ry rz
   end
   begin
      id 17
      name RightArm
      direction -1.000000 0.000000 0.000000
      length 11.094937
      axis 0.0 0.0 90.0 xyz
      dof rx ry rz
   end
   begin
      id 18
      name RightForeArm
      direction -1.000000 0.000000 0.000000
      length 9.103875
      axis 0.0 0.0 90.0 xyz
      dof ry rz rx
   end
   begin
      id 19
      name RightHand
      direction 0.000000 0.000000 0.000000
      length 0.000000
      axis 0.0 0.0 90.0 xyz
      dof rx ry rz
   end
   begin
      id 20
      name RightHand_dum1
      direction 0.000000 0.000000 0.000000
      length 0.000000
      axis 0.0 0.0 90.0 xyz
   end
   begin
      id 21
      name RightHand_dum2
      direction -1.000000 0.000000 0.000000
      length 3.937000
      axis 0.0 0.0 90.0 xyz
   end
   begin
      id 22
      name RightHandThumb1
      direction 0.000000 0.000000 1.000000
      length 3.937000
      axis 0.0 0.0 90.0 xyz
      dof rx rz ry
   end
   begin
      id 23
      name LeftUpLeg
      direction 0.000000 -1.000000 0.000000
      length 16.181467
      axis 0.0 0.0 0.0 xyz
      dof rx ry rz
   end
   begin
      id 24
      name LeftLeg
      direction 0.000000 -1.000000 0.000000
      length 16.501392
      axis 0.0 0.0 0.0 xyz
      dof rx ry rz
   end
   begin
      id 25
      name LeftFoot
      direction 0.000000 -0.258819 0.965926
      length 6.408245
      axis 15.0 0.0 0.0 xyz
      dof rx ry rz
   end
   begin
      id 26
      name LeftToeBase
      direction 0.000000 0.000000 1.000000
      length 2.952750
      axis 0.0 0.0 0.0 xyz
      dof rx ry rz
   end
   begin
      id 27
      name RightUpLeg
      direction 0.000000 -1.000000 0.000000
      length 16.181467
      axis 0.0 0.0 0.0 xyz
      dof rx ry rz
   end
   begin
      id 28
      name RightLeg
      direction 0.000000 -1.000000 0.000000
      length 16.501392
      axis 0.0 0.0 0.0 xyz
      dof rx ry rz
   end
   begin
      id 29
      name RightFoot
      direction 0.000000 -0.258819 0.965926
      length 6.408245
      axis 15.0 0.0 0.0 xyz
      dof rx ry rz
   end
   begin
      id 30
      name RightToeBase
      direction 0.000000 0.000000 1.000000
      length 2.952750
      axis 0.0 0.0 0.0 xyz
      dof rx ry rz
   end
:hierarchy
   begin
      root Spine_dum LeftUpLeg_dum RightUpLeg_dum
      Spine_dum Spine
      LeftUpLeg_dum LeftUpLeg
      RightUpLeg_dum RightUpLeg
      Spine Spine_dum1 Spine_dum2 Spine_dum3
      Spine_dum1 Head
      Spine_dum2 LeftShoulder
      Spine_dum3 RightShoulder
      LeftShoulder LeftArm
      LeftArm LeftForeArm
      LeftForeArm LeftHand
      LeftHand LeftHand_dum1 LeftHand_dum2
      LeftHand_dum1 LeftHandThumb1
      RightShoulder RightArm
      RightArm RightForeArm
      RightForeArm RightHand
      RightHand RightHand_dum1 RightHand_dum2
      RightHand_dum1 RightHandThumb1
      LeftUpLeg LeftLeg
      LeftLeg LeftFoot
      LeftFoot LeftToeBase
      RightUpLeg RightLeg
      RightLeg RightFoot
      RightFoot RightToeBase
   end

# File created by Blade
# Date/Time:  Wed Apr 08 17:31:39 2015
# Frame Rate: 120.000 fps
#------------------------------------------------------
:FULLY-SPECIFIED
:DEGREES
37
root 6.778651 36.191566 0.062507 -141.508730 -87.147333 167.169253
Spine -25.003022 0.376749 -2.384404
Head 7.192613 10.522805 4.666351
LeftShoulder -3.783688 11.618440 29.568424
LeftArm 15.562777 -37.175678 -42.171133
LeftForeArm 11.522544 -0.000000 4.747094
LeftHand -11.813327 0.000000 -9.745785
LeftHandThumb1 -26.253704 0.000000 33.147579
RightShoulder -21.111538 -39.640125 -13.909665
RightArm 59.066255 47.999427 61.331254
RightForeArm 7.445132 -0.000000 0.662155
RightHand -2.029518 -0.000000 7.025673
RightHandThumb1 -24.326973 -0.000000 -32.862282
LeftUpLeg -30.246138 14.393098 0.972133
LeftLeg 15.426245 -0.000000 -0.000000
LeftFoot -9.388183 7.537012 -13.315306
LeftToeBase 5.432559 -0.000000 -0.000000
RightUpLeg -30.129574 -7.046121 -5.354723
RightLeg 14.426681 -0.000000 -0.000000
RightFoot -11.375662 -4.218086 19.869283
RightToeBase 9.371145 -0.000000 -0.000000
38
root 6.789633 36.191164 0.056235 -141.545725 -87.142312 167.200440
Spine -24.951579 0.386214 -2.383515
Head 7.201335 10.551511 4.649055
LeftShoulder -3.776771 11.633748 29.508300
LeftArm 15.627260 -36.929154 -42.158312
LeftForeArm 11.571049 0.000000 4.915443
LeftHand -11.752431 -0.000000 -9.843140
LeftHandThumb1 -26.253704 0.000000 33.147579
RightShoulder -21.079889 -39.619607 -13.911988
RightArm 58.941132 47.857706 61.128663
RightForeArm 7.417363 -0.000000 0.957625
RightHand -1.985658 0.000000 7.046291
RightHandThumb1 -24.326973 -0.000000 -32.862282
LeftUpLeg -30.278627 14.384175 0.984578
LeftLeg 15.465772 -0.000000 -0.000000
LeftFoot -9.380013 7.553122 -13.318794
LeftToeBase 5.435074 -0.000000 -0.000000
RightUpLeg -30.148690 -7.016255 -5.352070
RightLeg 14.439872 -0.000000 -0.000000
RightFoot -11.373900 -4.235074 19.826700
RightToeBase 9.349537 -0.000000 -0.000000
39
root 6.799669 36.191194 0.050711 -141.513047 -87.141458 167.162286
Spine -24.913835 0.397883 -2.394021
Head 7.222960 10.565927 4.666917
LeftShoulder -3.771575 11.647391 29.492084
LeftArm 15.678207 -36.759459 -42.218502
LeftForeArm 11.424815 -0.000000 5.227156
LeftHand -11.626831 -0.000000 -9.786250
LeftHandThumb1 -26.253704 0.000000 33.147579
RightShoulder -21.036250 -39.613500 -13.914207
RightArm 58.799010 47.720396 60.935892
RightForeArm 7.409629 -0.000000 1.282299
RightHand -1.962532 -0.000000 7.070893
RightHandThumb1 -24.326973 -0.000000 -32.862282
LeftUpLeg -30.301759 14.367218 0.993962
LeftLeg 15.488014 -0.000000 -0.000000
LeftFoot -9.359643 7.594150 -13.304474
LeftToeBase 5.415334 -0.000000 -0.000000
RightUpLeg -30.159495 -7.003394 -5.346462
RightLeg 14.438178 -0.000000 -0.000000
RightFoot -11.377216 -4.251323 19.822955
RightToeBase 9.356742 -0.000000 -0.000000
40
root 6.810108 36.190845 0.044933 -141.437593 -87.139332 167.079246
Spine -24.877336 0.406996 -2.401090
Head 7.248244 10.579136 4.666208
LeftShoulder -3.765601 11.670129 29.471241
LeftArm 15.788903 -36.740319 -42.365063
LeftForeArm 11.354841 -0.000000 5.510504
LeftHand -11.570991 -0.000000 -9.804440
LeftHandThumb1 -26.253704 0.000000 33.147579
RightShoulder -20.997481 -39.629566 -13.928257
RightArm 58.680729 47.561754 60.767483
RightForeArm 7.407779 0.000000 1.630623
RightHand -2.014162 -0.000000 7.091804
RightHandThumb1 -24.326973 -0.000000 -32.862282
LeftUpLeg -30.314744 14.354623 1.001066
LeftLeg 15.495668 -0.000000 -0.000000
LeftFoot -9.350020 7.613445 -13.299879
LeftToeBase 5.419458 -0.000000 -0.000000
RightUpLeg -30.171403 -6.986093 -5.346651
RightLeg 14.444765 -0.000000 -0.000000
RightFoot -11.376908 -4.255185 19.805515
RightToeBase 9.338336 -0.000000 -0.000000
41
root 6.819566 36.190476 0.039393 -141.485383 -87.110812 167.116724
Spine -24.838017 0.432179 -2.430243
Head 7.260218 10.602004 4.702942
LeftShoulder -3.758963 11.673568 29.462280
LeftArm 15.887858 -36.775774 -42.523253
LeftForeArm 11.224068 -0.000000 5.799891
LeftHand -11.518769 -0.000000 -10.017743
LeftHandThumb1 -26.253704 0.000000 33.147579
RightShoulder -20.948198 -39.634728 -13.911377
RightArm 58.432719 47.349029 60.409169
RightForeArm 7.585799 -0.000000 1.966138
RightHand -2.025178 -0.000000 7.056677
RightHandThumb1 -24.326973 -0.000000 -32.862282
LeftUpLeg -30.310115 14.362806 0.998549
LeftLeg 15.483139 -0.000000 -0.000000
LeftFoot -9.331317 7.640903 -13.294811
LeftToeBase 5.407405 -0.000000 -0.000000
RightUpLeg -30.181773 -6.946054 -5.359090
RightLeg 14.447308 -0.000000 -0.000000
RightFoot -11.378186 -4.262711 19.779750
RightToeBase 9.358512 -0.000000 -0.000000
42
root 6.829060 36.191001 0.033500 -141.446734 -87.103715 167.070183
Spine -24.810258 0.435249 -2.446957
Head 7.298241 10.600367 4.730159
LeftShoulder -3.743027 11.665870 29.433567
LeftArm 15.980916 -36.798759 -42.628140
LeftForeArm 11.201410 -0.000000 6.005454
LeftHand -11.491741 -0.000000 -10.186305
LeftHandThumb1 -26.253704 0.000000 33.147579
RightShoulder -20.894109 -39.655641 -13.911835
RightArm 58.388069 47.210558 60.302511
RightForeArm 7.615267 0.000000 2.260836
RightHand -2.008331 -0.000000 7.100672
RightHandThumb1 -24.326973 -0.000000 -32.862282
LeftUpLeg -30.308207 14.358535 1.003220
LeftLeg 15.465919 -0.000000 -0.000000
LeftFoot -9.305892 7.670001 -13.264212
LeftToeBase 5.415513 -0.000000 -0.000000
RightUpLeg -30.182583 -6.914437 -5.367227
RightLeg 14.434926 -0.000000 -0.000000
RightFoot -11.378448 -4.274023 19.783645
RightToeBase 9.352384 -0.000000 -0.000000
43
root 6.838228 36.191323 0.026991 -141.388910 -87.106925 167.011957
Spine -24.793256 0.439852 -2.456254
Head 7.328825 10.607475 4.744763
LeftShoulder -3.730237 11.665447 29.401753
LeftArm 16.117448 -36.868222 -42.787828
LeftForeArm 11.051606 -0.000000 6.250075
LeftHand -11.519683 -0.000000 -10.274769
LeftHandThumb1 -26.253704 0.000000 33.147579
RightShoulder -20.856541 -39.667375 -13.915199
RightArm 58.382150 47.082518 60.253451
RightForeArm 7.673382 -0.000000 2.561689
RightHand -2.040030 -0.000000 7.145548
RightHandThumb1 -24.326973 -0.000000 -32.862282
LeftUpLeg -30.308127 14.341703 1.014130
LeftLeg 15.437394 -0.000000 -0.000000
LeftFoot -9.288674 7.696347 -13.267935
LeftToeBase 5.452819 -0.000000 -0.000000
RightUpLeg -30.192111 -6.891786 -5.365782
RightLeg 14.428490 -0.000000 -0.000000
RightFoot -11.379115 -4.289298 19.776338
RightToeBase 9.335217 -0.000000 -0.000000
44
root 6.847883 36.191630 0.020547 -141.544277 -87.099826 167.166614
Spine -24.781149 0.450566 -2.461283
Head 7.356594 10.608019 4.769214
LeftShoulder -3.723015 11.651862 29.379220
LeftArm 16.243952 -36.886120 -42.917505
LeftForeArm 10.885519 -0.000000 6.445016
LeftHand -11.388110 -0.000000 -10.250382
LeftHandThumb1 -26.253704 0.000000 33.147579
RightShoulder -20.808554 -39.676999 -13.917711
RightArm 58.467717 46.991262 60.294352
RightForeArm 7.664557 -0.000000 2.820930
RightHand -1.951770 -0.000000 7.224402
RightHandThumb1 -24.326973 -0.000000 -32.862282
LeftUpLeg -30.309049 14.348370 1.026051
LeftLeg 15.412102 -0.000000 -0.000000
LeftFoot -9.263304 7.712769 -13.257712
LeftToeBase 5.435905 -0.000000 -0.000000
RightUpLeg -30.205086 -6.859571 -5.358555
RightLeg 14.423316 -0.000000 -0.000000
RightFoot -11.375425 -4.309760 19.755272
RightToeBase 9.343752 -0.000000 -0.000000
45
root 6.857484 36.191887 0.015346 -141.518038 -87.111517 167.139853
Spine -24.766843 0.446271 -2.461276
Head 7.385281 10.603066 4.789927
LeftShoulder -3.703889 11.629770 29.360794
LeftArm 16.352972 -36.893004 -43.039153
LeftForeArm 10.714489 -0.000000 6.652070
LeftHand -11.340319 -0.000000 -10.213666
LeftHandThumb1 -26.253704 0.000000 33.147579
RightShoulder -20.764382 -39.682143 -13.913942
RightArm 58.514836 46.873341 60.277681
RightForeArm 7.764531 -0.000000 3.097922
RightHand -1.967363 -0.000000 7.219999
RightHandThumb1 -24.326973 -0.000000 -32.862282
LeftUpLeg -30.316860 14.336655 1.038030
LeftLeg 15.392656 -0.000000 -0.000000
LeftFoot -9.240508 7.725121 -13.227653
LeftToeBase 5.433114 -0.000000 -0.000000
RightUpLeg -30.208799 -6.848621 -5.346362
RightLeg 14.407036 -0.000000 -0.000000
RightFoot -11.365097 -4.337403 19.722075
RightToeBase 9.330890 -0.000000 -0.000000
46
root 6.866827 36.192111 0.008882 -141.612037 -87.122019 167.240369
Spine -24.767178 0.447193 -2.457546
Head 7.415463 10.596227 4.803285
LeftShoulder -3.687808 11.618883 29.341889
LeftArm 16.474723 -36.774117 -43.134688
LeftForeArm 10.577251 -0.000000 6.846320
LeftHand -11.366549 0.000000 -10.346521
LeftHandThumb1 -26.253704 0.000000 33.147579
RightShoulder -20.715591 -39.683979 -13.910643
RightArm 58.678451 46.809796 60.377197
RightForeArm 7.730343 -0.000000 3.286432
RightHand -1.898669 -0.000000 7.261022
RightHandThumb1 -24.326973 -0.000000 -32.862282
LeftUpLeg -30.331289 14.319743 1.059882
LeftLeg 15.379101 -0.000000 -0.000000
LeftFoot -9.225067 7.734789 -13.256389
LeftToeBase 5.443958 -0.000000 -0.000000
RightUpLeg -30.225819 -6.827511 -5.331673
RightLeg 14.406473 -0.000000 -0.000000
RightFoot -11.373026 -4.364908 19.676768
RightToeBase 9.354192 -0.000000 -0.000000
47
root 6.876234 36.191711 0.003847 -141.826606 -87.120521 167.468393
Spine -24.772122 0.454732 -2.444733
Head 7.411332 10.606145 4.810797
LeftShoulder -3.686429 11.595961 29.296452
LeftArm 16.599377 -36.694123 -43.214550
LeftForeArm 10.564724 -0.000000 7.047717
LeftHand -11.384663 -0.000000 -10.217846
LeftHandThumb1 -26.253704 0.000000 33.147579
RightShoulder -20.672705 -39.683686 -13.926037
RightArm 58.809048 46.704542 60.434790
RightForeArm 7.737230 -0.000000 3.504851
RightHand -1.879590 -0.000000 7.321572
RightHandThumb1 -24.326973 -0.000000 -32.862282
LeftUpLeg -30.351085 14.335537 1.067917
LeftLeg 15.361564 -0.000000 -0.000000
LeftFoot -9.208344 7.736274 -13.239796
LeftToeBase 5.455284 -0.000000 -0.000000
RightUpLeg -30.251332 -6.809152 -5.315252
RightLeg 14.398892 -0.000000 -0.000000
RightFoot -11.366952 -4.367776 19.676630
RightToeBase 9.359495 -0.000000 -0.000000
48
root 6.884446 36.191904 -0.001824 -141.902158 -87.122546 167.543662
Spine -24.773322 0.456828 -2.446682
Head 7.438874 10.591042 4.830506
LeftShoulder -3.657843 11.559329 29.270428
LeftArm 16.712319 -36.603999 -43.278161
LeftForeArm 10.498347 -0.000000 7.214597
LeftHand -11.446176 -0.000000 -10.263032
LeftHandThumb1 -26.253704 0.000000 33.147579
RightShoulder -20.608992 -39.691774 -13.932261
RightArm 58.797573 46.556031 60.318797
RightForeArm 7.796284 0.000000 3.768889
RightHand -1.977459 -0.000000 7.331479
RightHandThumb1 -24.326973 -0.000000 -32.862282
LeftUpLeg -30.359673 14.354491 1.071545
LeftLeg 15.349539 -0.000000 -0.000000
LeftFoot -9.190759 7.729384 -13.237427
LeftToeBase 5.462487 -0.000000 -0.000000
RightUpLeg -30.266768 -6.781940 -5.307079
RightLeg 14.407511 -0.000000 -0.000000
RightFoot -11.377674 -4.398194 19.651433
RightToeBase 9.369251 -0.000000 -0.000000
49
root 6.892440 36.191721 -0.006218 -142.073728 -87.116269 167.714691
Spine -24.780157 0.473856 -2.447876
Head 7.466876 10.581582 4.843250
LeftShoulder -3.614453 11.509782 29.270864
LeftArm 16.822147 -36.516510 -43.373362
LeftForeArm 10.661459 -0.000000 7.362567
LeftHand -11.387943 -0.000000 -10.258378
LeftHandThumb1 -26.253704 0.000000 33.147579
RightShoulder -20.524318 -39.676390 -13.965507
RightArm 58.785341 46.407966 60.195570
RightForeArm 7.829429 -0.000000 3.959878
RightHand -1.946662 -0.000000 7.358710
RightHandThumb1 -24.326973 -0.000000 -32.862282
LeftUpLeg -30.366300 14.369194 1.081180
LeftLeg 15.340524 -0.000000 -0.000000
LeftFoot -9.172451 7.728208 -13.229653
LeftToeBase 5.451214 -0.000000 -0.000000
RightUpLeg -30.283078 -6.750575 -5.303044
RightLeg 14.414720 -0.000000 -0.000000
RightFoot -11.382249 -4.411369 19.634681
RightToeBase 9.366286 -0.000000 -0.000000
